<?xml version="1.0" encoding="utf-8"?>
<!-- Generator: Adobe Illustrator 19.0.0, SVG Export Plug-In . SVG Version: 6.00 Build 0)  -->
<svg version="1.1" id="Layer_1" xmlns="http://www.w3.org/2000/svg" xmlns:xlink="http://www.w3.org/1999/xlink" x="0px" y="0px"
	 viewBox="0 0 200 200" style="enable-background:new 0 0 200 200;" xml:space="preserve">
<path id="XMLID_15_" d="M185.4,49.6L102.6,1.8c-1-0.6-2.3-0.6-3.3,0L16.6,49.6c-1,0.6-1.6,1.7-1.6,2.8V148c0,1.2,0.6,2.2,1.6,2.8
	l82.7,47.8c0.5,0.3,1.1,0.4,1.6,0.4c0.6,0,1.1-0.1,1.6-0.4l82.7-47.8c1-0.6,1.6-1.7,1.6-2.8V52.4C187,51.3,186.4,50.2,185.4,49.6z
	 M101,96.4L66.3,76.4L101,56.3l34.7,20.1L101,96.4z M63,82l34.7,20.1v40.1L63,122.1V82z M104.3,102.1L139,82v40.1l-34.7,20.1V102.1z
	 M102.6,49.7c-1-0.6-2.3-0.6-3.3,0L68.5,67.5L101,11.2l32.5,56.3L102.6,49.7z M58.1,126.9L89,144.7h-65l32.5-56.3V124
	C56.4,125.2,57.1,126.3,58.1,126.9z M143.9,126.9c1-0.6,1.6-1.7,1.6-2.8V88.4l32.5,56.3h-65L143.9,126.9z M109.9,13.6l67.3,38.8
	l-33.6,19.4L109.9,13.6z M58.4,71.9L24.8,52.4l67.3-38.8L58.4,71.9z M55.2,77.5l-33.6,58.2V58.1L55.2,77.5z M97.7,151.2v38.8
	l-67.3-38.8H97.7z M104.3,151.2h67.3l-67.3,38.8V151.2z M146.8,77.5l33.6-19.4v77.7L146.8,77.5z"/>
</svg>
